<?xml version="1.0" standalone="no"?><!DOCTYPE svg PUBLIC "-//W3C//DTD SVG 1.1//EN" "http://www.w3.org/Graphics/SVG/1.1/DTD/svg11.dtd"><svg t="1660847256475" class="icon" viewBox="0 0 1024 1024" version="1.1" xmlns="http://www.w3.org/2000/svg" p-id="3614" xmlns:xlink="http://www.w3.org/1999/xlink" width="200" height="200"><defs><style type="text/css"></style></defs><path d="M64 0h320a64 64 0 0 1 64 64v320a64 64 0 0 1-64 64H64a64 64 0 0 1-64-64V64a64 64 0 0 1 64-64z m0 576h320a64 64 0 0 1 64 64v320a64 64 0 0 1-64 64H64a64 64 0 0 1-64-64v-320a64 64 0 0 1 64-64z m576-576h320a64 64 0 0 1 64 64v320a64 64 0 0 1-64 64h-320a64 64 0 0 1-64-64V64a64 64 0 0 1 64-64z m0 576h320a64 64 0 0 1 64 64v320a64 64 0 0 1-64 64h-320a64 64 0 0 1-64-64v-320a64 64 0 0 1 64-64z" p-id="3615" fill="#8a8a8a"></path></svg>