<?xml version="1.0" standalone="no"?><!DOCTYPE svg PUBLIC "-//W3C//DTD SVG 1.1//EN" "http://www.w3.org/Graphics/SVG/1.1/DTD/svg11.dtd"><svg t="1660878780886" class="icon" viewBox="0 0 1024 1024" version="1.1" xmlns="http://www.w3.org/2000/svg" p-id="8541" xmlns:xlink="http://www.w3.org/1999/xlink" width="200" height="200"><defs><style type="text/css"></style></defs><path d="M512 917.333333a405.333333 405.333333 0 1 1 405.333333-405.333333 405.333333 405.333333 0 0 1-405.333333 405.333333z m0-768a362.666667 362.666667 0 1 0 362.666667 362.666667A362.666667 362.666667 0 0 0 512 149.333333z" p-id="8542" fill="#2c2c2c"></path><path d="M490.666667 106.666667m21.333333 0l0 0q21.333333 0 21.333333 21.333333l0 85.333333q0 21.333333-21.333333 21.333334l0 0q-21.333333 0-21.333333-21.333334l0-85.333333q0-21.333333 21.333333-21.333333Z" p-id="8543" fill="#2c2c2c"></path><path d="M217.096561 247.156124m15.084945-15.084945l0 0q15.084945-15.084945 30.169889 0l60.339779 60.339779q15.084945 15.084945 0 30.169889l0 0q-15.084945 15.084945-30.16989 0l-60.339778-60.339779q-15.084945-15.084945 0-30.169889Z" p-id="8544" fill="#2c2c2c"></path><path d="M776.757471 217.013816m15.084945 15.084945l0 0q15.084945 15.084945 0 30.169889l-60.339779 60.339779q-15.084945 15.084945-30.169889 0l0 0q-15.084945-15.084945 0-30.16989l60.339778-60.339778q15.084945-15.084945 30.16989 0Z" p-id="8545" fill="#2c2c2c"></path><path d="M106.666667 533.333333m0-21.333333l0 0q0-21.333333 21.333333-21.333333l85.333333 0q21.333333 0 21.333334 21.333333l0 0q0 21.333333-21.333334 21.333333l-85.333333 0q-21.333333 0-21.333333-21.333333Z" p-id="8546" fill="#2c2c2c"></path><path d="M789.333333 533.333333m0-21.333333l0 0q0-21.333333 21.333334-21.333333l85.333333 0q21.333333 0 21.333333 21.333333l0 0q0 21.333333-21.333333 21.333333l-85.333333 0q-21.333333 0-21.333334-21.333333Z" p-id="8547" fill="#2c2c2c"></path><path d="M505.813333 566.186667c-16.64-16.853333-90.666667-151.04-90.666666-151.04s134.186667 74.026667 151.04 90.666666a42.666667 42.666667 0 0 1-60.373334 60.373334z" p-id="8548" fill="#2c2c2c"></path></svg>